<svg width="622" height="169" viewBox="0 0 622 169" fill="none" xmlns="http://www.w3.org/2000/svg">
<path d="M26.57 151.29L117.67 119.7C134.19 114.46 145.99 100.89 145.99 83.35C145.99 65.99 134.32 52.53 118.18 47.13L26.57 15.4C17.69 12.28 7.95996 14.46 3.26996 22.59C-1.42004 30.71 1.50996 40.05 8.69996 46.36L50.89 83.35L8.69996 120.34C1.50996 126.61 -1.42004 135.99 3.26996 144.11C7.95996 152.23 17.63 154.5 26.57 151.3V151.29Z" fill="#F22929"/>
<path d="M220.39 54.16V33.83C220.39 28.84 218.4 25.55 213.87 25.55C209.34 25.55 207.04 29.62 207.04 33.91V54.16H195.99V16.27H206.42V20.57C208.8 16.43 213.17 15.43 216.39 15.43C220.53 15.43 224.98 16.96 227.44 22.49C230.82 17.35 234.42 15.36 240.02 15.36C247.92 15.36 255.13 19.35 255.13 33.46V54.17H244.01V33.69C244.01 28.93 242.71 25.79 238.26 25.79C233.81 25.79 231.28 29.55 231.28 33.84V54.17H220.39V54.16Z" fill="#9E9E9E"/>
<path d="M299.32 33.91C299.32 35.55 299.17 37.13 298.86 38.67H272.32C272.63 40.87 273.7 42.6 275.54 43.85C277.38 45.1 279.45 45.73 281.75 45.73C285.64 45.73 289.06 44.55 292.03 42.2L297.17 49.33C293.23 53.11 287.89 55.01 281.14 55.01C275 55.01 269.98 53.31 266.07 49.91C262.16 46.51 260.2 41.64 260.2 35.3C260.2 28.96 262.21 24.19 266.22 20.69C270.23 17.19 275.05 15.44 280.68 15.44C286.31 15.44 290.69 17.06 294.14 20.31C297.59 23.56 299.32 28.1 299.32 33.93V33.91ZM285.82 26.35C284.39 25.1 282.57 24.47 280.37 24.47C278.17 24.47 276.33 25.1 274.85 26.35C273.37 27.6 272.52 29.43 272.32 31.83H287.89C287.94 29.43 287.25 27.6 285.82 26.35V26.35Z" fill="#9E9E9E"/>
<path d="M315.51 0.540009V31.15L326.71 16.35H339.75V17.04L325.87 34.15L341.9 53.33V54.17H328.63L315.51 37.52V54.17H304.46V0.540009H315.51Z" fill="#9E9E9E"/>
<path d="M360.91 15.42C367.25 15.42 372.04 16.61 375.29 18.99C378.54 21.37 380.16 25.16 380.16 30.38V54.16H369.57V47.26C368.55 49.56 366.66 51.4 364.35 52.78C362.05 54.16 359.41 54.85 356.45 54.85C352.56 54.85 349.34 53.74 346.79 51.51C344.23 49.29 342.95 46.31 342.95 42.57C342.95 38.63 344.37 35.56 347.21 33.37C350.05 31.17 353.72 30.07 358.22 30.07C362.16 30.07 365.46 30.74 368.11 32.06V31.29C368.11 26.79 365.2 24.54 359.37 24.54C355.89 24.54 352.06 25.26 347.86 26.69L345.64 18.33C350.55 16.39 355.64 15.42 360.9 15.42H360.91ZM360.3 45.57C362.4 45.57 364.19 45.01 365.67 43.88C367.15 42.76 368.05 41.2 368.35 39.2C366 37.97 363.47 37.36 360.76 37.36C358.97 37.36 357.55 37.72 356.5 38.43C355.45 39.15 354.93 40.19 354.93 41.57C354.93 42.85 355.44 43.83 356.46 44.52C357.48 45.21 358.76 45.56 360.3 45.56V45.57Z" fill="#9E9E9E"/>
<path d="M396.97 16.34V20.48C399.5 16.95 402.88 15.42 407.1 15.42C410.71 15.42 413.7 16.49 416.38 18.87L411.78 27.61C409.94 26.31 408.02 25.69 405.72 25.69C400.96 25.69 396.9 28.76 396.9 34.43V54.14H385.85V16.32H396.97V16.34Z" fill="#9E9E9E"/>
<path d="M430.95 6.21C430.95 14.49 418.37 14.49 418.37 6.21C418.37 -2.07 430.95 -2.07 430.95 6.21ZM419.14 16.18V54.15H430.19V16.18H419.14Z" fill="#9E9E9E"/>
<path d="M272.1 100.67C282.93 100.67 291.12 102.7 296.66 106.76C302.21 110.82 304.98 117.31 304.98 126.21V166.82H286.9V155.03C285.15 158.96 281.92 162.1 277.99 164.46C274.06 166.82 269.56 168 264.5 168C257.86 168 252.36 166.1 247.99 162.3C243.62 158.5 241.44 153.41 241.44 147.04C241.44 140.32 243.86 135.08 248.71 131.32C253.56 127.57 259.82 125.69 267.51 125.69C274.23 125.69 279.87 126.83 284.41 129.1V127.79C284.41 120.11 279.43 116.26 269.48 116.26C263.54 116.26 256.99 117.48 249.83 119.93L246.03 105.65C254.41 102.33 263.1 100.67 272.1 100.67V100.67ZM271.05 152.15C274.63 152.15 277.69 151.19 280.22 149.27C282.75 147.35 284.28 144.68 284.8 141.28C280.78 139.18 276.46 138.14 271.83 138.14C268.77 138.14 266.35 138.75 264.56 139.97C262.77 141.19 261.87 142.98 261.87 145.34C261.87 147.52 262.74 149.2 264.49 150.38C266.24 151.56 268.42 152.15 271.04 152.15H271.05Z" fill="black"/>
<path d="M588.89 100.67C599.72 100.67 607.91 102.7 613.45 106.76C619 110.82 621.77 117.31 621.77 126.21V166.82H603.69V155.03C601.94 158.96 598.71 162.1 594.78 164.46C590.85 166.82 586.35 168 581.29 168C574.65 168 569.15 166.1 564.78 162.3C560.41 158.5 558.23 153.41 558.23 147.04C558.23 140.32 560.65 135.08 565.5 131.32C570.35 127.57 576.61 125.69 584.3 125.69C591.02 125.69 596.66 126.83 601.2 129.1V127.79C601.2 120.11 596.22 116.26 586.27 116.26C580.33 116.26 573.78 117.48 566.62 119.93L562.82 105.65C571.2 102.33 579.89 100.67 588.89 100.67V100.67ZM587.84 152.15C591.42 152.15 594.48 151.19 597.01 149.27C599.54 147.35 601.07 144.68 601.59 141.28C597.57 139.18 593.25 138.14 588.62 138.14C585.56 138.14 583.14 138.75 581.35 139.97C579.56 141.19 578.66 142.98 578.66 145.34C578.66 147.52 579.53 149.2 581.28 150.38C583.03 151.56 585.21 152.15 587.83 152.15H587.84Z" fill="black"/>
<path d="M214.43 84.43V102.51H230.81V118.23H214.3V142.6C214.3 149.41 218.1 151.25 221.64 151.25C223.87 151.25 227.4 150.73 229.5 149.68L233.82 165.4C229.1 167.23 225.31 168.02 220.2 168.28C206.18 168.93 195.57 162.78 195.57 142.6V118.23H184.04V102.51H195.57V84.43H214.43Z" fill="black"/>
<path d="M338.13 75.26V166.83H319.4V75.26H338.13Z" fill="black"/>
<path d="M416.07 132.24C416.07 135.04 415.81 137.74 415.28 140.36H369.95C370.47 144.12 372.31 147.06 375.45 149.2C378.59 151.34 382.13 152.41 386.06 152.41C392.7 152.41 398.55 150.4 403.61 146.38L412.39 158.56C405.66 165.02 396.54 168.25 385.01 168.25C374.53 168.25 365.95 165.35 359.27 159.54C352.59 153.73 349.25 145.41 349.25 134.58C349.25 123.75 352.68 115.61 359.53 109.62C366.38 103.64 374.61 100.65 384.22 100.65C393.83 100.65 401.32 103.42 407.21 108.97C413.11 114.52 416.05 122.27 416.05 132.22L416.07 132.24ZM393.01 119.34C390.56 117.2 387.46 116.13 383.71 116.13C379.96 116.13 376.81 117.2 374.28 119.34C371.75 121.48 370.31 124.6 369.96 128.71H396.55C396.64 124.61 395.46 121.48 393.01 119.34V119.34Z" fill="black"/>
<path d="M472.79 166.83V132.64C472.79 122.68 468.47 117.58 459.43 117.58C450.65 117.45 444.76 125.05 444.76 133.43V166.83H426.16V102.12H443.84V110.37C449.6 102.9 456.94 100.41 464.8 100.55C479.34 100.55 491.79 107.36 491.79 132.51V166.83H472.8H472.79Z" fill="black"/>
<path d="M531.22 84.43V102.51H547.6V118.23H531.09V142.6C531.09 149.41 534.89 151.25 538.43 151.25C540.66 151.25 544.19 150.73 546.29 149.68L550.61 165.4C545.89 167.23 542.1 168.02 536.99 168.28C522.97 168.93 512.36 162.78 512.36 142.6V118.23H500.83V102.51H512.36V84.43H531.22V84.43Z" fill="black"/>
</svg>
